<svg xmlns="http://www.w3.org/2000/svg" viewBox="0 0 500 500"><g id="freepik--tab-2--inject-27"><g id="freepik--Window--inject-27"><g id="freepik--window--inject-27"><path d="M334.47,18.87a2,2,0,0,0-.06-.35.08.08,0,0,0,0-.08,1.13,1.13,0,0,0-.09-.34,1.52,1.52,0,0,0-.23-.5.63.63,0,0,0-.12-.21.81.81,0,0,0-.12-.14,1.48,1.48,0,0,0-.25-.25l0,0a2.17,2.17,0,0,0-.33-.19,2.85,2.85,0,0,0-2.62.33L106.16,146.36c-2.14,1.24-3.89,4.26-3.89,8.59V343a2.63,2.63,0,0,0,1.4,2.33l.17.11.2.12a1.35,1.35,0,0,0,.34.11,2.07,2.07,0,0,0,.49.07,2.55,2.55,0,0,0,1.29-.37l.11-.06h0l3.71-2.15L330.6,216a8.59,8.59,0,0,0,3.9-6.74V19.36C334.5,19.19,334.48,19,334.47,18.87Z" style="fill:#fafafa"></path><path d="M332.33,17.7a1,1,0,0,1,.44.1l.07,0,0,0,.06,0,.1.13h0v0l.09.13a.46.46,0,0,1,.07.16l0,0,.1.31v0l0,0,0,.06s0,.08,0,.11,0,.26,0,.39V209.29a7.51,7.51,0,0,1-3.33,5.77L109.43,342.17l-3.62,2.08h0l-.1.05-.1.06a1.53,1.53,0,0,1-.68.22h-.06l-.25,0-.08,0-.1-.06-.1-.06,0,0,0,0,0,0a1.51,1.51,0,0,1-.81-1.35V155c0-4.2,1.73-6.69,3.34-7.63L331.15,18.08a2.48,2.48,0,0,1,1.18-.38m0-1.11a3.58,3.58,0,0,0-1.73.52L106.16,146.36c-2.14,1.24-3.89,4.26-3.89,8.59V343a2.63,2.63,0,0,0,1.4,2.33l.17.11.2.12a1.35,1.35,0,0,0,.34.11,2.07,2.07,0,0,0,.49.07h.06a2.55,2.55,0,0,0,1.23-.37l.11-.06h0l3.71-2.15L330.6,216a8.59,8.59,0,0,0,3.9-6.74V19.36c0-.17,0-.33,0-.49a2,2,0,0,0-.06-.35.08.08,0,0,0,0-.08,1.13,1.13,0,0,0-.09-.34,1.52,1.52,0,0,0-.23-.5.63.63,0,0,0-.12-.21.81.81,0,0,0-.12-.14,1.48,1.48,0,0,0-.25-.25l0,0a2.17,2.17,0,0,0-.33-.19,2,2,0,0,0-.89-.19Z" style="fill:#90CAF9"></path><path d="M333.22,16.78a2.85,2.85,0,0,0-2.62.33L106.16,146.36a8.63,8.63,0,0,0-3.89,6.74v7.54l-7.6-4.42v-7.46A8.6,8.6,0,0,1,98.55,142L323,12.79a2.69,2.69,0,0,1,2.82-.23C326.53,13,332.39,16.35,333.22,16.78Z" style="fill:#90CAF9"></path><path d="M334.49,19.33c0-2.45-1.75-3.45-3.89-2.21L106.16,146.36a8.6,8.6,0,0,0-3.89,6.74v7.55L334.49,26.93Z" style="fill:#90CAF9"></path><g style="opacity:0.2"><path d="M330.6,17.12,106.16,146.36a8,8,0,0,0-2.73,2.89l-7.58-4.38A7.81,7.81,0,0,1,98.56,142L323,12.78a2.78,2.78,0,0,1,2.83-.23c.7.43,6.55,3.78,7.37,4.22A2.79,2.79,0,0,0,330.6,17.12Z" style="fill:#fff"></path></g><path d="M94.67,156.23v-7.47a8,8,0,0,1,1.18-3.89l7.59,4.37a7.85,7.85,0,0,0-1.16,3.86v7.55Z" style="opacity:0.15"></path><path d="M317.6,28.46A4,4,0,0,0,316,31.61c0,1.22.74,1.78,1.65,1.25a4,4,0,0,0,1.65-3.15C319.25,28.49,318.51,27.93,317.6,28.46Z" style="fill:#fafafa"></path><path d="M323.54,25a4,4,0,0,0-1.65,3.16c0,1.21.74,1.77,1.65,1.24a4,4,0,0,0,1.65-3.15C325.19,25.05,324.45,24.49,323.54,25Z" style="fill:#fafafa"></path><path d="M329.48,21.58a4,4,0,0,0-1.65,3.16c0,1.21.74,1.77,1.65,1.25a4,4,0,0,0,1.66-3.16C331.14,21.62,330.4,21.06,329.48,21.58Z" style="fill:#fafafa"></path><path d="M103.67,345.32l-.2-.11-6.73-3.89a4.11,4.11,0,0,1-2-3,3.64,3.64,0,0,1,0-.57V156.22l7.6,4.43V343a2.55,2.55,0,0,0,1.21,2.21,1,1,0,0,0,.13.09l0,0Z" style="fill:#90CAF9"></path><path d="M103.67,345.32l-.2-.11-6.73-3.89a4.11,4.11,0,0,1-2-3,3.64,3.64,0,0,1,0-.57V156.22l7.6,4.43V343a2.55,2.55,0,0,0,1.21,2.21,1,1,0,0,0,.13.09l0,0Z" style="fill:#fff;opacity:0.5"></path></g><path d="M188.21,284l60.35-34.84V173.24l-60.35,34.84Zm-74.77,43.17,60.35-34.85V216.41l-60.35,34.84ZM263,240.81,323.32,206V130.08L263,164.92ZM113.44,171.45v68.12L323.32,118.4V50.28Z" style="fill:#f0f0f0"></path></g></g><g id="freepik--Text--inject-27"><g id="freepik--SEO--inject-27"><path d="M243.84,189.75c0-13,8.51-28.88,18.48-34.64,4.48-2.58,8.62-2.82,11.84-1.15-1.39-.81-4.64-2.67-5.51-3.19-3.28-1.94-7.6-1.8-12.28.9-10,5.76-18.48,21.61-18.48,34.64,0,7,2.46,12,6.28,14.23.91.54,4.29,2.49,5.68,3.28C246.18,201.52,243.84,196.59,243.84,189.75Z" style="fill:#37474f"></path><path d="M265.79,163a13.32,13.32,0,0,1,1.42,6.4c0,8.11-5,17.86-10.84,21.25a8.4,8.4,0,0,1-3.4,1.16c1.88,3.45,5.42,4.55,9.35,2.28,5.88-3.4,10.84-13.14,10.84-21.24C273.16,166.43,270,162.59,265.79,163Z" style="fill:#263238"></path><path d="M243.84,189.75c0-13,8.51-28.88,18.49-34.64s18.48.27,18.48,13.3-8.41,28.89-18.48,34.71S243.84,202.78,243.84,189.75Zm29.32-16.93c0-8-5-12-10.83-8.66s-10.79,13.11-10.79,21.15,5,12.12,10.79,8.76S273.16,180.92,273.16,172.82Z" style="fill:#fff"></path><path d="M269.68,152.9v.73c6.32,0,10.4,5.8,10.4,14.78,0,12.8-8.3,28.4-18.12,34.07a13.89,13.89,0,0,1-6.91,2.08c-6.36,0-10.48-5.81-10.48-14.81,0-12.76,8.3-28.34,18.12-34a14.11,14.11,0,0,1,7-2.11v-.73M258.33,196a8.69,8.69,0,0,0,4.36-1.29c6.07-3.5,11.21-13.52,11.21-21.88,0-6.34-3-10.6-7.52-10.6a8.92,8.92,0,0,0-4.42,1.3c-6,3.49-11.15,13.47-11.15,21.79,0,6.39,3,10.68,7.52,10.68m11.35-43.09a14.84,14.84,0,0,0-7.35,2.21c-10,5.76-18.49,21.61-18.49,34.64,0,9.69,4.7,15.54,11.21,15.54a14.75,14.75,0,0,0,7.28-2.17c10.07-5.82,18.48-21.68,18.48-34.71,0-9.67-4.63-15.51-11.13-15.51Zm-11.35,42.36c-3.93,0-6.79-3.8-6.79-9.95,0-8,5-17.79,10.79-21.15a8.15,8.15,0,0,1,4.05-1.21c3.93,0,6.78,3.78,6.78,9.87,0,8.1-5,17.86-10.83,21.25a8.07,8.07,0,0,1-4,1.19Z" style="fill:#90CAF9"></path><path d="M220.24,189.2v9.25l17.47-10.09v9l-17.47,10.09v10.19l19.3-11.14v9l-26.79,15.47V184.54l26.79-15.46v9Z" style="fill:#fff"></path><path d="M238.8,170.35v7.28l-18.92,10.93-.37.21v10.95l1.1-.64L237,189.63v7.29l-17.1,9.87-.37.21v11.89l1.1-.63,18.19-10.51V215l-25.32,14.62V185l25.32-14.62m.74-1.27-26.79,15.46v46.39l26.79-15.47v-9l-19.3,11.14V207.43l17.47-10.09v-9l-17.47,10.09V189.2l19.3-11.14v-9Z" style="fill:#90CAF9"></path><polygon points="212.75 230.93 206.79 227.49 206.79 181.1 212.75 184.54 212.75 230.93" style="fill:#263238"></polygon><polygon points="239.54 169.08 233.58 165.64 206.79 181.1 212.75 184.54 239.54 169.08" style="fill:#37474f"></polygon><polygon points="231.76 184.92 220.24 191.57 220.24 198.45 237.72 188.36 231.76 184.92" style="fill:#37474f"></polygon><polygon points="233.58 203.04 220.24 210.75 220.24 217.62 239.54 206.48 233.58 203.04" style="fill:#37474f"></polygon><path d="M198.87,209.83c-2.17-1.41-5.62-.93-9.9.27l-1.35.36a10.85,10.85,0,0,1,14.9-7.25l3.9-9.41c-2-1.13-6-3.44-6-3.44-3.54-2-8-1.82-13.62,1.45-7.59,4.39-12.86,13.3-12.86,21.88,0,3.82.94,6,2.59,7,1.06.68,5.18,3,6.1,3.52,2.23,1.32,5.69.76,9.82-.38l1.24-.32a11,11,0,0,1-5.52,7.06c-4.41,2.54-8.15,2.41-11.44.53l-4.31,9.31c2,1.29,6,3.43,6,3.43,4.05,2.66,9.41,2.26,15.44-1.22a26.41,26.41,0,0,0,13.52-22.52c0-3.75-.95-5.88-2.65-6.92C203.69,212.57,199.73,210.38,198.87,209.83Z" style="fill:#37474f"></path><path d="M178.42,243.86l4.3-9.3c3.29,1.88,7,2,11.44-.53,3.75-2.17,5.68-5.57,5.68-8.48,0-3.3-2-3.15-7.35-1.7-7.34,2-12.56,2.26-12.56-6.72,0-8.58,5.27-17.49,12.87-21.88,5.67-3.27,10.07-3.45,13.62-1.45l-3.9,9.41a10.23,10.23,0,0,0-9.93.6c-3.19,1.84-5.11,5.18-5.11,7.95,0,3.37,2.08,3.26,7.44,1.78,7.5-2.1,12.46-2,12.46,6.58a26.41,26.41,0,0,1-13.52,22.52C187.83,246.12,182.47,246.52,178.42,243.86Z" style="fill:#fff"></path><path d="M201.44,193.23a9.17,9.17,0,0,1,4.05.91l-3.36,8.09a10.27,10.27,0,0,0-3.9-.77,12,12,0,0,0-6,1.71c-3.23,1.87-5.48,5.4-5.48,8.59,0,2.35,1,3.5,3.14,3.5a22,22,0,0,0,5.23-1,24.32,24.32,0,0,1,6.23-1.1c2.62,0,5.3.83,5.3,7,0,8.82-5,17.2-13.16,21.89a18.55,18.55,0,0,1-9.11,2.85,10.06,10.06,0,0,1-5-1.28l3.71-8a10.68,10.68,0,0,0,4.71,1.12,13.54,13.54,0,0,0,6.76-2c3.67-2.11,6-5.69,6-9.11,0-2.29-1-3.41-3.06-3.41a21.65,21.65,0,0,0-5.21,1,25.16,25.16,0,0,1-6.33,1.12c-2.62,0-5.3-.85-5.3-7.14,0-8.26,5.14-17,12.49-21.24a17,17,0,0,1,8.28-2.66m0-.73a17.58,17.58,0,0,0-8.64,2.75c-7.6,4.39-12.87,13.3-12.87,21.88,0,6,2.32,7.87,6,7.87a26.16,26.16,0,0,0,6.52-1.15,21.84,21.84,0,0,1,5-1c1.63,0,2.33.75,2.33,2.68,0,2.91-1.93,6.31-5.68,8.48a12.76,12.76,0,0,1-6.39,1.93,10,10,0,0,1-5.05-1.4l-4.3,9.3a10.59,10.59,0,0,0,6,1.73,19.29,19.29,0,0,0,9.48-3,26.41,26.41,0,0,0,13.52-22.52c0-5.79-2.26-7.72-6-7.72a24.89,24.89,0,0,0-6.43,1.14,21.71,21.71,0,0,1-5,1c-1.69,0-2.41-.77-2.41-2.76,0-2.77,1.92-6.11,5.11-7.95a11.25,11.25,0,0,1,5.64-1.61,9.55,9.55,0,0,1,4.29,1l3.9-9.41a10,10,0,0,0-5-1.3Z" style="fill:#90CAF9"></path><polygon points="182.72 234.56 176.76 231.12 172.46 240.43 178.42 243.86 182.72 234.56" style="fill:#263238"></polygon></g></g></svg>
